<svg xmlns="http://www.w3.org/2000/svg" viewBox="0 0 512 512">
  <defs>
    <linearGradient id="bg" x1="72" y1="32" x2="440" y2="480" gradientUnits="userSpaceOnUse">
      <stop offset="0" stop-color="#fff3a8"/>
      <stop offset=".55" stop-color="#ffd4bd"/>
      <stop offset="1" stop-color="#aeeaf1"/>
    </linearGradient>
    <linearGradient id="pot" x1="150" y1="212" x2="366" y2="430" gradientUnits="userSpaceOnUse">
      <stop offset="0" stop-color="#7ed6df"/>
      <stop offset=".58" stop-color="#54b7c8"/>
      <stop offset="1" stop-color="#318ca0"/>
    </linearGradient>
    <linearGradient id="egg" x1="210" y1="112" x2="330" y2="286" gradientUnits="userSpaceOnUse">
      <stop offset="0" stop-color="#fffef4"/>
      <stop offset="1" stop-color="#fff0b1"/>
    </linearGradient>
    <filter id="shadow" x="-20%" y="-20%" width="140%" height="150%">
      <feDropShadow dx="0" dy="16" stdDeviation="12" flood-color="#263238" flood-opacity=".18"/>
    </filter>
  </defs>

  <rect width="512" height="512" rx="116" fill="url(#bg)"/>
  <circle cx="104" cy="112" r="58" fill="#ffbf3f" opacity=".42"/>
  <circle cx="408" cy="92" r="48" fill="#71bc78" opacity=".38"/>

  <g filter="url(#shadow)">
    <path d="M130 254h252v116c0 54-44 98-98 98h-56c-54 0-98-44-98-98V254Z" fill="url(#pot)" stroke="#287c91" stroke-width="20" stroke-linejoin="round"/>
    <path d="M100 260c-34 0-62 28-62 62" fill="none" stroke="#287c91" stroke-width="20" stroke-linecap="round"/>
    <path d="M412 260c34 0 62 28 62 62" fill="none" stroke="#287c91" stroke-width="20" stroke-linecap="round"/>
    <path d="M150 226c30-44 182-44 212 0" fill="#86dbe3" stroke="#287c91" stroke-width="20" stroke-linecap="round" stroke-linejoin="round"/>
    <path d="M226 194h60v-36c0-16-13-30-30-30s-30 14-30 30v36Z" fill="#ffbf3f" stroke="#a7602c" stroke-width="14" stroke-linejoin="round"/>
  </g>

  <g filter="url(#shadow)">
    <path d="M198 172c0-64 38-116 86-116s86 52 86 116-38 116-86 116-86-52-86-116Z" fill="url(#egg)" stroke="#d2a95a" stroke-width="16"/>
    <circle cx="260" cy="168" r="8" fill="#263238"/>
    <circle cx="308" cy="168" r="8" fill="#263238"/>
    <path d="M270 200c10 12 25 12 35 0" fill="none" stroke="#ff6f59" stroke-width="9" stroke-linecap="round"/>
    <path d="M230 126c14-24 34-39 58-43" fill="none" stroke="#fff" stroke-width="14" stroke-linecap="round" opacity=".7"/>
  </g>

  <path d="M206 382c22 20 58 30 96 18" fill="none" stroke="#ffffff" stroke-width="16" stroke-linecap="round" opacity=".45"/>
  <path d="M238 466c-15-24-7-47 18-72 25 25 33 48 18 72h-36Z" fill="#ff6f59"/>
  <path d="M250 458c-8-12-4-24 9-38 14 14 18 26 10 38h-19Z" fill="#ffd166"/>
</svg>
